<?xml version="1.0" standalone="no"?>
<!DOCTYPE svg PUBLIC "-//W3C//DTD SVG 20010904//EN"
 "http://www.w3.org/TR/2001/REC-SVG-20010904/DTD/svg10.dtd">
<svg version="1.0" xmlns="http://www.w3.org/2000/svg"
 width="502.000000pt" height="419.000000pt" viewBox="0 0 502.000000 419.000000"
 preserveAspectRatio="xMidYMid meet">

<g transform="translate(0.000000,419.000000) scale(0.100000,-0.100000)"
fill="#000000" stroke="none">
<path d="M2425 3402 c-504 -54 -962 -421 -1135 -907 -27 -77 -69 -247 -70
-281 0 -6 30 -31 68 -56 72 -48 264 -158 275 -158 4 0 13 15 21 33 19 46 88
103 142 116 60 15 117 4 172 -33 82 -56 113 -155 78 -254 l-15 -41 82 -29
c171 -62 398 -131 570 -172 152 -37 177 -46 177 -63 0 -22 6 -23 -221 34 -177
43 -406 113 -524 158 -86 33 -105 37 -105 20 0 -18 -146 -316 -159 -323 -23
-14 -221 425 -221 491 0 12 -26 32 -83 62 -45 24 -119 68 -165 97 -45 30 -88
54 -94 54 -16 0 -3 -297 17 -390 120 -548 515 -950 1058 -1078 98 -23 134 -26
292 -26 193 -1 266 10 429 61 334 104 648 371 806 682 l28 56 -252 0 c-242 0
-406 9 -406 23 1 30 18 33 134 21 116 -11 529 -9 541 2 12 12 63 175 81 259
26 120 27 419 0 539 -62 288 -185 511 -394 719 l-114 113 7 41 c15 84 -36 177
-118 217 -77 37 -178 22 -237 -34 l-25 -24 -61 19 c-68 21 -203 50 -231 50
-14 0 -37 -37 -88 -140 -81 -164 -68 -166 -157 18 -33 67 -63 123 -67 125 -3
1 -19 1 -36 -1z m876 -140 c95 -85 -32 -229 -130 -146 -73 61 -34 173 61 174
27 0 46 -8 69 -28z m-1547 -406 c70 -29 87 -102 37 -158 -24 -27 -36 -33 -71
-33 -82 0 -129 96 -79 159 19 25 49 44 72 45 4 1 23 -5 41 -13z m972 -82 c62
-38 99 -105 97 -178 -1 -63 -46 -182 -140 -370 l-70 -140 -26 45 c-40 68 -131
265 -161 347 -43 121 -31 206 41 274 70 66 174 75 259 22z m979 -163 c43 -19
100 -78 116 -118 16 -43 10 -120 -17 -195 -28 -79 -152 -341 -176 -371 -12
-17 -21 -4 -90 140 -127 260 -147 329 -124 407 20 65 49 101 108 130 62 31
125 34 183 7z m-655 -936 c59 -31 69 -107 21 -156 -49 -48 -125 -38 -156 21
-24 46 -19 78 19 116 38 38 70 43 116 19z"/>
</g>
</svg>
